# xmcd CD database file
#
# Track frame offsets:
#	150
#	21501
#	31831
#	56558
#	73587
#	94586
#	118631
#	127109
#	144178
#	151870
#	177272
#	202538
#	215656
#	237156
#	253758
#
# Disc length: 3487 seconds
#
# Revision: 0
# Processed by: cddbd v1.5.1PL0 Copyright (c) Steve Scherf et al.
# Submitted via: CDex 1.51
#
DISCID=cb0d9d0f
DTITLE=Alexandar Wladigeroff - Jazz Impressions
DYEAR=2002
DGENRE=Jazz
TTITLE0=Mack the Knife
TTITLE1=There Will Never Be Another You
TTITLE2=You Don't Knows What Love Is
TTITLE3=Mo' Better Blues
TTITLE4=The Girl from Ipanema
TTITLE5=Bartender
TTITLE6=Keep Swinging
TTITLE7=Chase
TTITLE8=The Way to Leake
TTITLE9=Black Orpheus
TTITLE10=Beatiful Love
TTITLE11=The Blue Way
TTITLE12=Georgia on My Mind
TTITLE13=Just Friends
TTITLE14=Steet Blues
EXTD=YEAR: 2002
EXTT0=
EXTT1=
EXTT2=
EXTT3=
EXTT4=
EXTT5=
EXTT6=
EXTT7=
EXTT8=
EXTT9=
EXTT10=
EXTT11=
EXTT12=
EXTT13=
EXTT14=
PLAYORDER=
